HIERARCHY
ROOT Hips
{
	OFFSET	0.000000	0.000000	0.000000
	CHANNELS 6 Xposition Yposition Zposition Zrotation Xrotation Yrotation
	JOINT LeftHip
	{
		OFFSET	4.740440	-3.195970	-0.322709
		CHANNELS 3 Zrotation Xrotation Yrotation
		JOINT LeftKnee
		{
			OFFSET	-1.605680	-15.592300	1.005510
			CHANNELS 3 Zrotation Xrotation Yrotation
			JOINT LeftAnkle
			{
				OFFSET	-0.632401	-16.421000	-1.413730
				CHANNELS 3 Zrotation Xrotation Yrotation
				End Site
				{
					OFFSET	0.008423	-3.933000	-2.776750
				}
			}
		}
	}
	JOINT RightHip
	{
		OFFSET	-4.740440	-3.195970	-0.322709
		CHANNELS 3 Zrotation Xrotation Yrotation
		JOINT RightKnee
		{
			OFFSET	1.605680	-15.592300	1.005510
			CHANNELS 3 Zrotation Xrotation Yrotation
			JOINT RightAnkle
			{
				OFFSET	0.632401	-16.421000	-1.413730
				CHANNELS 3 Zrotation Xrotation Yrotation
				End Site
				{
					OFFSET	-0.008423	-3.933000	-2.776750
				}
			}
		}
	}
	JOINT Chest
	{
		OFFSET	0.000000	3.468200	0.078401
		CHANNELS 3 Zrotation Xrotation Yrotation
		JOINT LeftCollar
		{
			OFFSET	3.857650	15.070700	-0.011583
			CHANNELS 3 Zrotation Xrotation Yrotation
			JOINT LeftShoulder
			{
				OFFSET	3.979720	-1.940530	-0.165223
				CHANNELS 3 Zrotation Xrotation Yrotation
				JOINT LeftElbow
				{
					OFFSET	0.615844	-10.986600	-0.673886
					CHANNELS 3 Zrotation Xrotation Yrotation
					JOINT LeftWrist
					{
						OFFSET	0.826843	-10.854500	1.034220
						CHANNELS 3 Zrotation Xrotation Yrotation
						End Site
						{
							OFFSET	-1.679080	-8.456540	0.936217
						}
					}
				}
			}
		}
		JOINT RightCollar
		{
			OFFSET	-3.857650	15.070700	-0.011583
			CHANNELS 3 Zrotation Xrotation Yrotation
			JOINT RightShoulder
			{
				OFFSET	-3.979720	-1.940530	-0.165223
				CHANNELS 3 Zrotation Xrotation Yrotation
				JOINT RightElbow
				{
					OFFSET	-0.615845	-10.986600	-0.673886
					CHANNELS 3 Zrotation Xrotation Yrotation
					JOINT RightWrist
					{
						OFFSET	-0.826843	-10.854500	1.034220
						CHANNELS 3 Zrotation Xrotation Yrotation
						End Site
						{
							OFFSET	1.679080	-8.456540	0.936217
						}
					}
				}
			}
		}
		JOINT Neck
		{
			OFFSET	0.000000	15.101400	0.055730
			CHANNELS 3 Zrotation Xrotation Yrotation
			JOINT Head
			{
				OFFSET	0.000000	4.185120	1.488260
				CHANNELS 3 Zrotation Xrotation Yrotation
				End Site
				{
					OFFSET	0.000000	7.773420	-0.106016
				}
			}
		}
	}
}
MOTION
Frames:    13
Frame Time: 0.016667
-10.853689	28.025190	18.237797	1.724170	-38.545265	7.215097	41.851620	-17.585909	22.328148	-47.881145	75.288918	29.888044	8.013090	-13.017741	6.731452	-27.395729	-20.728308	-24.851185	68.956276	83.958138	-54.223530	-11.355231	-19.047760	-7.384364	2.028757	43.174870	2.084384	-0.441228	3.314272	-0.110197	7.935082	-23.478966	4.694180	-76.610077	-78.712852	-68.264503	15.743173	-3.558814	17.254585	0.867646	2.500941	5.244200	-18.640898	-20.270359	-15.651253	65.522850	-73.745232	48.175720	-23.197676	-15.242501	-17.265858	4.079448	12.677344	-8.671109	6.264930	16.597321	-11.444973	
-10.853689	28.025190	18.237797	1.724170	-38.545265	7.215097	41.851620	-17.585909	22.328148	-47.881145	75.288918	29.888044	8.013090	-13.017741	6.731452	-27.395729	-20.728308	-24.851185	68.956276	83.958138	-54.223530	-11.355231	-19.047760	-7.384364	2.028757	43.174870	2.084384	-0.441228	3.314272	-0.110197	7.935082	-23.478966	4.694180	-76.645370	-78.794998	-68.293411	15.685225	-3.630070	17.229593	0.881477	2.513080	5.242318	-18.638817	-20.260946	-15.655053	65.578529	-73.758476	48.223888	-23.155767	-15.283655	-17.241175	4.081344	12.680544	-8.647766	6.227558	16.527540	-11.478212	
-10.853689	28.025190	18.237797	1.724170	-38.545265	7.215097	41.851620	-17.585909	22.328148	-47.881145	75.288918	29.888044	8.013090	-13.017741	6.731452	-27.395729	-20.728308	-24.851185	68.956276	83.958138	-54.223530	-11.355231	-19.047760	-7.384364	2.028757	43.174870	2.084384	-0.433135	3.320749	-0.106986	7.925827	-23.485901	4.691185	-76.666214	-78.842972	-68.310509	15.657014	-3.695875	17.212429	0.895568	2.525888	5.241305	-18.637581	-20.252836	-15.660017	65.633682	-73.770004	48.272923	-23.115742	-15.324190	-17.217979	4.083078	12.683490	-8.626390	6.166513	16.419035	-11.514001	
-10.853689	28.025190	18.237797	1.724170	-38.545265	7.215097	41.851620	-17.585909	22.328148	-47.881145	75.288918	29.888044	8.013090	-13.017741	6.731452	-27.395729	-20.728308	-24.851185	68.956276	83.958138	-54.223530	-11.355231	-19.047760	-7.384364	2.028757	43.174870	2.084384	-0.424111	3.328051	-0.103351	7.913739	-23.489243	4.687037	-76.701485	-78.875793	-68.345001	15.644757	-3.779324	17.197456	0.909437	2.538880	5.241108	-18.636709	-20.244612	-15.665186	65.689949	-73.781151	48.324364	-23.076820	-15.366070	-17.196396	4.083816	12.677479	-8.614479	6.139134	16.299173	-11.523228	
-10.853689	28.025190	18.237797	1.724170	-38.545265	7.215097	41.851620	-17.585909	22.328148	-47.881145	75.288918	29.888044	8.013090	-13.017741	6.731452	-27.395729	-20.728308	-24.851185	68.956276	83.958138	-54.223530	-11.355231	-19.047760	-7.384364	2.028757	43.174870	2.084384	-0.415011	3.335412	-0.099694	7.898906	-23.485720	4.681808	-76.783890	-78.940269	-68.426773	15.590636	-3.760791	17.184757	0.922943	2.551619	5.241068	-18.635496	-20.235504	-15.669646	65.755653	-73.789009	48.386036	-23.043179	-15.407773	-17.176407	4.083508	12.660814	-8.612156	6.217300	16.124016	-11.584743	
-10.853689	28.025190	18.237797	1.724170	-38.545265	7.215097	41.851620	-17.585909	22.328148	-47.881145	75.288918	29.888044	8.013090	-13.017741	6.731452	-27.395729	-20.728308	-24.851185	68.956276	83.958138	-54.223530	-11.355231	-19.047760	-7.384364	2.028757	43.174870	2.084384	-0.406151	3.342580	-0.096138	7.884120	-23.481411	4.676580	-76.869156	-79.002747	-68.511803	15.543324	-3.772750	17.170374	0.936789	2.564799	5.241279	-18.626455	-20.231476	-15.664186	65.796783	-73.801300	48.431217	-23.008371	-15.450096	-17.156439	4.083205	12.644312	-8.609856	6.337190	15.859513	-11.644691	
-10.853689	28.025190	18.237797	1.724170	-38.545265	7.215097	41.851620	-17.585909	22.328148	-47.881145	75.288918	29.888044	8.013090	-13.017741	6.731452	-27.395729	-20.728308	-24.851185	68.956276	83.958138	-54.223530	-11.355231	-19.047760	-7.384364	2.028757	43.174870	2.084384	-0.399693	3.351949	-0.089650	7.870452	-23.479092	4.668569	-76.953407	-79.055275	-68.596794	15.515678	-3.833266	17.153315	0.951062	2.578280	5.241259	-18.596485	-20.232002	-15.639157	65.803268	-73.825874	48.461105	-22.975624	-15.491164	-17.146704	4.082898	12.627322	-8.607500	6.487980	15.587334	-11.743523	
-10.853689	28.025190	18.237797	1.724170	-38.545265	7.215097	41.851620	-17.585909	22.328148	-47.881145	75.288918	29.888044	8.013090	-13.017741	6.731452	-27.395729	-20.728308	-24.851185	68.956276	83.958138	-54.223530	-11.355231	-19.047760	-7.384364	2.028757	43.174870	2.084384	-0.401839	3.361083	-0.080453	7.858877	-23.478979	4.656535	-76.938568	-79.103424	-68.587479	15.475950	-3.862510	17.143303	0.965532	2.591698	5.240702	-18.568378	-20.233034	-15.614745	65.798973	-73.854881	48.477524	-22.941540	-15.533525	-17.152855	4.082623	12.610724	-8.605198	6.661771	15.287313	-11.851224	
-10.853689	28.025190	18.237797	1.724170	-38.545265	7.215097	41.851620	-17.585909	22.328148	-47.881145	75.288918	29.888044	8.013090	-13.017741	6.731452	-27.395729	-20.728308	-24.851185	68.956276	83.958138	-54.223530	-11.355231	-19.047760	-7.384364	2.028757	43.174870	2.084384	-0.409894	3.366893	-0.072258	7.846171	-23.477510	4.643299	-76.730698	-79.155922	-68.390190	15.420088	-3.916414	17.136244	0.980156	2.605715	5.241049	-18.541260	-20.234402	-15.591682	65.792068	-73.884979	48.491581	-22.907511	-15.569509	-17.161417	4.082623	12.610724	-8.605198	6.835355	14.998591	-11.917776	
-10.853689	28.025190	18.237797	1.724170	-38.545265	7.215097	41.851620	-17.585909	22.328148	-47.881145	75.288918	29.888044	8.013090	-13.017741	6.731452	-27.395729	-20.728308	-24.851185	68.956276	83.958138	-54.223530	-11.355231	-19.047760	-7.384364	2.033406	43.178745	2.082937	-0.414049	3.375893	-0.061952	7.830112	-23.481079	4.627987	-76.605591	-79.163368	-68.274773	15.423503	-3.938144	17.138363	0.991819	2.616451	5.239771	-18.513430	-20.235859	-15.568029	65.784096	-73.916336	48.505322	-22.871229	-15.601599	-17.167097	4.080591	12.576045	-8.582451	7.002363	14.741547	-12.004834	
-10.853689	28.025190	18.237797	1.724170	-38.545265	7.215097	41.851620	-17.585909	22.328148	-47.881145	75.288918	29.888044	8.013090	-13.017741	6.731452	-27.395729	-20.728308	-24.851185	68.956276	83.958138	-54.223530	-11.355231	-19.047760	-7.384364	2.044304	43.187836	2.079576	-0.431122	3.374582	-0.056068	7.830313	-23.476278	4.616688	-76.311104	-79.170929	-67.981926	15.433134	-3.970059	17.145699	0.998855	2.622523	5.237135	-18.501650	-20.199797	-15.553809	65.906975	-73.958374	48.629192	-22.834421	-15.622885	-17.171686	4.074052	12.551377	-8.569483	7.182137	14.481234	-12.057157	
-10.853689	28.025190	18.237797	1.724170	-38.545265	7.215097	41.851620	-17.585909	22.328148	-47.881145	75.288918	29.888044	8.013090	-13.017741	6.731452	-27.395729	-20.728308	-24.851185	68.956276	83.958138	-54.223530	-11.355231	-19.047760	-7.384364	2.055822	43.197430	2.075994	-0.449322	3.372339	-0.050579	7.831102	-23.470610	4.605501	-76.147545	-79.177094	-67.821228	15.424328	-4.029361	17.147558	1.006227	2.628743	5.234036	-18.519350	-20.208981	-15.559032	65.897682	-73.971458	48.600651	-22.795786	-15.633439	-17.162916	4.067232	12.527008	-8.555239	7.365663	14.229259	-12.095478	
-10.853689	28.025190	18.237797	1.724170	-38.545265	7.215097	41.851620	-17.585909	22.328148	-47.881145	75.288918	29.888044	8.013090	-13.017741	6.731452	-27.395729	-20.728308	-24.851185	68.956276	83.958138	-54.223530	-11.355231	-19.047760	-7.384364	2.067288	43.206978	2.072439	-0.459984	3.377067	-0.041244	7.822574	-23.471319	4.590568	-75.809715	-79.184914	-67.485222	15.415219	-4.093147	17.154694	1.014607	2.635899	5.230926	-18.540018	-20.222507	-15.565886	65.878059	-73.981949	48.560566	-22.754074	-15.643015	-17.139769	4.060543	12.503051	-8.540382	7.532828	13.961752	-12.150594	
